ISO-10303-21;
HEADER;
FILE_DESCRIPTION ((''), '2;1');
FILE_NAME ('', '2025-05-01T20:39:08', (''), (''), 'Processor version 5.1.0.0', 'Xbim.IO.MemoryModel', '');
FILE_SCHEMA (('IFC4X1'));
ENDSEC;
DATA;
#1=IFCPROJECT('03WSF_D010aRCNzUCluCVd',#2,'Profile elements',$,$,$,$,(#19,#22),#7);
#2=IFCOWNERHISTORY(#5,#6,$,.ADDED.,1746131948,$,$,0);
#3=IFCPERSON($,'Team','xbim',$,$,$,$,$);
#4=IFCORGANIZATION($,'xbim developer',$,$,$);
#5=IFCPERSONANDORGANIZATION(#3,#4,$);
#6=IFCAPPLICATION(#4,'0.3','T-Rex','T-Rex');
#7=IFCUNITASSIGNMENT((#8,#9,#10,#11,#12,#13,#14,#15,#16));
#8=IFCSIUNIT(*,.LENGTHUNIT.,.MILLI.,.METRE.);
#9=IFCSIUNIT(*,.AREAUNIT.,$,.SQUARE_METRE.);
#10=IFCSIUNIT(*,.VOLUMEUNIT.,$,.CUBIC_METRE.);
#11=IFCSIUNIT(*,.SOLIDANGLEUNIT.,$,.STERADIAN.);
#12=IFCSIUNIT(*,.PLANEANGLEUNIT.,$,.RADIAN.);
#13=IFCSIUNIT(*,.MASSUNIT.,$,.GRAM.);
#14=IFCSIUNIT(*,.TIMEUNIT.,$,.SECOND.);
#15=IFCSIUNIT(*,.THERMODYNAMICTEMPERATUREUNIT.,$,.DEGREE_CELSIUS.);
#16=IFCSIUNIT(*,.LUMINOUSINTENSITYUNIT.,$,.LUMEN.);
#17=IFCCARTESIANPOINT((0.,0.,0.));
#18=IFCAXIS2PLACEMENT3D(#17,$,$);
#19=IFCGEOMETRICREPRESENTATIONCONTEXT('Building Model','Model',3,1.E-05,#18,$);
#20=IFCCARTESIANPOINT((0.,0.));
#21=IFCAXIS2PLACEMENT2D(#20,$);
#22=IFCGEOMETRICREPRESENTATIONCONTEXT('Building Plan View','Plan',2,1.E-05,#21,$);
#23=IFCBUILDING('3qR7oKTfTADAUKwqJrieRT',#2,'Building name',$,$,$,$,$,.ELEMENT.,$,$,$);
#24=IFCLOCALPLACEMENT($,#25);
#25=IFCAXIS2PLACEMENT3D(#26,$,$);
#26=IFCCARTESIANPOINT((0.,0.,0.));
#27=IFCRELAGGREGATES('05Qu7L4DX6ywAJ52xc0XNa',#2,$,$,#1,(#23));
#28=IFCMATERIAL('Grade name',$,'Material name');
#29=IFCRELASSOCIATESMATERIAL('1o3j5PwGn4nxwZYfnwrPLt',#2,$,$,(#48),#28);
#30=IFCCARTESIANPOINT((-50.61382003775819,34.83884019179062,0.));
#31=IFCCARTESIANPOINT((-8.15634914799125,40.06437507053116,0.));
#32=IFCCARTESIANPOINT((21.8904764047669,21.775002994939257,0.));
#33=IFCCARTESIANPOINT((-3.910602059014579,-0.4335202397080664,0.));
#34=IFCCARTESIANPOINT((22.21707233468817,-19.376084175142548,0.));
#35=IFCCARTESIANPOINT((34.62771767169696,-6.638842908212464,0.));
#36=IFCCARTESIANPOINT((53.243685677210145,-18.396296385378694,0.));
#37=IFCCARTESIANPOINT((17.971325245711455,-53.01546495703481,0.));
#38=IFCCARTESIANPOINT((-52.246799687364614,-1.7399039593932102,0.));
#39=IFCCARTESIANPOINT((-50.61382003775819,34.83884019179062,0.));
#40=IFCCARTESIANPOINT((-50.61382003775819,34.83884019179062,0.));
#41=IFCPOLYLINE((#30,#31,#32,#33,#34,#35,#36,#37,#38,#39,#40));
#42=IFCARBITRARYCLOSEDPROFILEDEF(.AREA.,'Profile name',#41);
#43=IFCEXTRUDEDAREASOLID(#42,#46,#44,1355.495017382607);
#44=IFCDIRECTION((0.,0.,1.));
#45=IFCCARTESIANPOINT((0.,0.,0.));
#46=IFCAXIS2PLACEMENT3D(#45,$,$);
#47=IFCSHAPEREPRESENTATION(#19,'Body','SweptSolid',(#43));
#48=IFCFOOTING('3cnrsisd537ec6Kjln2rj9',#2,'Element name',$,$,#50,#49,$,.PAD_FOOTING.);
#49=IFCPRODUCTDEFINITIONSHAPE($,$,(#47));
#50=IFCLOCALPLACEMENT($,#51);
#51=IFCAXIS2PLACEMENT3D(#52,#54,#53);
#52=IFCCARTESIANPOINT((-238.0431770506445,-445.4313979994777,0.));
#53=IFCDIRECTION((0.9982980421061768,0.05831825723539694,6.123233995736766E-17));
#54=IFCDIRECTION((-0.05831825723539694,0.9982980421061768,0.));
#55=IFCRELCONTAINEDINSPATIALSTRUCTURE('0rk8QneI14uw$YDqVst7Ri',#2,$,$,(#48,#76,#103,#140,#147,#154),#23);
#56=IFCMATERIAL('Grade name',$,'Material name');
#57=IFCRELASSOCIATESMATERIAL('0$8EzWCqb0Fvdsq6QtpHt$',#2,$,$,(#76),#56);
#58=IFCCARTESIANPOINT((-50.61382003775819,34.83884019179062,0.));
#59=IFCCARTESIANPOINT((-8.15634914799125,40.06437507053116,0.));
#60=IFCCARTESIANPOINT((21.8904764047669,21.775002994939257,0.));
#61=IFCCARTESIANPOINT((-3.910602059014579,-0.4335202397080664,0.));
#62=IFCCARTESIANPOINT((22.21707233468817,-19.376084175142548,0.));
#63=IFCCARTESIANPOINT((34.62771767169696,-6.638842908212464,0.));
#64=IFCCARTESIANPOINT((53.243685677210145,-18.396296385378694,0.));
#65=IFCCARTESIANPOINT((17.971325245711455,-53.01546495703481,0.));
#66=IFCCARTESIANPOINT((-52.246799687364614,-1.7399039593932102,0.));
#67=IFCCARTESIANPOINT((-50.61382003775819,34.83884019179062,0.));
#68=IFCCARTESIANPOINT((-50.61382003775819,34.83884019179062,0.));
#69=IFCPOLYLINE((#58,#59,#60,#61,#62,#63,#64,#65,#66,#67,#68));
#70=IFCARBITRARYCLOSEDPROFILEDEF(.AREA.,'Profile name',#69);
#71=IFCEXTRUDEDAREASOLID(#70,#74,#72,1383.664120844826);
#72=IFCDIRECTION((0.,0.,1.));
#73=IFCCARTESIANPOINT((0.,0.,0.));
#74=IFCAXIS2PLACEMENT3D(#73,$,$);
#75=IFCSHAPEREPRESENTATION(#19,'Body','SweptSolid',(#71));
#76=IFCFOOTING('2IyQNX1fT5yONp3BiThYmd',#2,'Element name',$,$,#78,#77,$,.STRIP_FOOTING.);
#77=IFCPRODUCTDEFINITIONSHAPE($,$,(#75));
#78=IFCLOCALPLACEMENT($,#79);
#79=IFCAXIS2PLACEMENT3D(#80,#82,#81);
#80=IFCCARTESIANPOINT((351.14891966988444,-500.81997940476344,0.));
#81=IFCDIRECTION((0.,0.,1.));
#82=IFCDIRECTION((-0.07412904866983916,0.9972486571278523,0.));
#83=IFCMATERIAL('Grade name',$,'Material name');
#84=IFCRELASSOCIATESMATERIAL('3P$Q2wDZL80en4x6pEsLkH',#2,$,$,(#103),#83);
#85=IFCCARTESIANPOINT((-50.61382003775819,34.83884019179062,0.));
#86=IFCCARTESIANPOINT((-8.15634914799125,40.06437507053116,0.));
#87=IFCCARTESIANPOINT((21.8904764047669,21.775002994939257,0.));
#88=IFCCARTESIANPOINT((-3.910602059014579,-0.4335202397080664,0.));
#89=IFCCARTESIANPOINT((22.21707233468817,-19.376084175142548,0.));
#90=IFCCARTESIANPOINT((34.62771767169696,-6.638842908212464,0.));
#91=IFCCARTESIANPOINT((53.243685677210145,-18.396296385378694,0.));
#92=IFCCARTESIANPOINT((17.971325245711455,-53.01546495703481,0.));
#93=IFCCARTESIANPOINT((-52.246799687364614,-1.7399039593932102,0.));
#94=IFCCARTESIANPOINT((-50.61382003775819,34.83884019179062,0.));
#95=IFCCARTESIANPOINT((-50.61382003775819,34.83884019179062,0.));
#96=IFCPOLYLINE((#85,#86,#87,#88,#89,#90,#91,#92,#93,#94,#95));
#97=IFCARBITRARYCLOSEDPROFILEDEF(.AREA.,'Profile name',#96);
#98=IFCEXTRUDEDAREASOLID(#97,#101,#99,1255.9876046663721);
#99=IFCDIRECTION((0.,0.,1.));
#100=IFCCARTESIANPOINT((0.,0.,0.));
#101=IFCAXIS2PLACEMENT3D(#100,$,$);
#102=IFCSHAPEREPRESENTATION(#19,'Body','SweptSolid',(#98));
#103=IFCBEAM('2RIbB4lKz5Ixv7SdvvjBF7',#2,'Element name',$,$,#105,#104,$,.BEAM.);
#104=IFCPRODUCTDEFINITIONSHAPE($,$,(#102));
#105=IFCLOCALPLACEMENT($,#106);
#106=IFCAXIS2PLACEMENT3D(#107,#109,#108);
#107=IFCCARTESIANPOINT((1017.2914393813148,0.,-42.09673881548707));
#108=IFCDIRECTION((0.,1.,0.));
#109=IFCDIRECTION((0.8280163356312865,0.,0.5607039753093754));
#110=IFCMATERIAL('Grade name',$,'Material name');
#111=IFCRELASSOCIATESMATERIAL('0lwJSqZbD1xPyO$M94$p$S',#2,$,$,(#140,#147,#154),#110);
#112=IFCCARTESIANPOINT((-50.61382003775819,34.83884019179062,0.));
#113=IFCCARTESIANPOINT((-8.15634914799125,40.06437507053116,0.));
#114=IFCCARTESIANPOINT((21.8904764047669,21.775002994939257,0.));
#115=IFCCARTESIANPOINT((-3.910602059014579,-0.4335202397080664,0.));
#116=IFCCARTESIANPOINT((22.21707233468817,-19.376084175142548,0.));
#117=IFCCARTESIANPOINT((34.62771767169696,-6.638842908212464,0.));
#118=IFCCARTESIANPOINT((53.243685677210145,-18.396296385378694,0.));
#119=IFCCARTESIANPOINT((17.971325245711455,-53.01546495703481,0.));
#120=IFCCARTESIANPOINT((-52.246799687364614,-1.7399039593932102,0.));
#121=IFCCARTESIANPOINT((-50.61382003775819,34.83884019179062,0.));
#122=IFCCARTESIANPOINT((-50.61382003775819,34.83884019179062,0.));
#123=IFCPOLYLINE((#112,#113,#114,#115,#116,#117,#118,#119,#120,#121,#122));
#124=IFCARBITRARYCLOSEDPROFILEDEF(.AREA.,'Profile name',#123);
#125=IFCEXTRUDEDAREASOLID(#124,#128,#126,2011.5788918400795);
#126=IFCDIRECTION((0.,0.,1.));
#127=IFCCARTESIANPOINT((0.,0.,0.));
#128=IFCAXIS2PLACEMENT3D(#127,$,$);
#129=IFCSHAPEREPRESENTATION(#19,'Body','SweptSolid',(#125));
#130=IFCEXTRUDEDAREASOLID(#124,#133,#131,2085.1597901171417);
#131=IFCDIRECTION((0.,0.,1.));
#132=IFCCARTESIANPOINT((0.,0.,0.));
#133=IFCAXIS2PLACEMENT3D(#132,$,$);
#134=IFCSHAPEREPRESENTATION(#19,'Body','SweptSolid',(#130));
#135=IFCEXTRUDEDAREASOLID(#124,#138,#136,1839.703335654128);
#136=IFCDIRECTION((0.,0.,1.));
#137=IFCCARTESIANPOINT((0.,0.,0.));
#138=IFCAXIS2PLACEMENT3D(#137,$,$);
#139=IFCSHAPEREPRESENTATION(#19,'Body','SweptSolid',(#135));
#140=IFCCOLUMN('3hVPGcn8r3XOuQWfj25B2f',#2,'Element name',$,$,#142,#141,$,.COLUMN.);
#141=IFCPRODUCTDEFINITIONSHAPE($,$,(#129));
#142=IFCLOCALPLACEMENT($,#143);
#143=IFCAXIS2PLACEMENT3D(#144,#146,#145);
#144=IFCCARTESIANPOINT((1800.641022205764,1247.8851998111759,0.));
#145=IFCDIRECTION((0.,0.,1.));
#146=IFCDIRECTION((0.31986123127284793,-0.9474644018265899,0.));
#147=IFCCOLUMN('03I9q5cJX1Ug1mMGuhnDvp',#2,'Element name',$,$,#149,#148,$,.COLUMN.);
#148=IFCPRODUCTDEFINITIONSHAPE($,$,(#134));
#149=IFCLOCALPLACEMENT($,#150);
#150=IFCAXIS2PLACEMENT3D(#151,#153,#152);
#151=IFCCARTESIANPOINT((2030.0144063874106,1239.2334242221746,0.));
#152=IFCDIRECTION((0.,0.,1.));
#153=IFCDIRECTION((0.3679893311039631,-0.9298300125257616,0.));
#154=IFCCOLUMN('2cP9tADCf8Fe4OjeJhhvXF',#2,'Element name',$,$,#156,#155,$,.COLUMN.);
#155=IFCPRODUCTDEFINITIONSHAPE($,$,(#139));
#156=IFCLOCALPLACEMENT($,#157);
#157=IFCAXIS2PLACEMENT3D(#158,#160,#159);
#158=IFCCARTESIANPOINT((2423.1397310295874,1094.8862516063052,0.));
#159=IFCDIRECTION((0.,0.,1.));
#160=IFCDIRECTION((0.37092385364978453,-0.9286632838621289,0.));
ENDSEC;
END-ISO-10303-21;
